<svg width="24" height="24" viewBox="0 0 24 24" fill="none" xmlns="http://www.w3.org/2000/svg">
<path d="M12 21V13" stroke="#3F4044" stroke-width="1.5"/>
<path d="M20.9708 5.0034C20.5831 11.5157 16.4057 13.6216 12.9979 13.9515C12.4482 14.0047 12 13.5521 12 12.9998V8.8138C12 8.69765 12.0204 8.5802 12.0623 8.4719C13.5588 4.59942 17.1415 4.0775 20.0007 4.00977C20.5528 3.99669 21.0036 4.45206 20.9708 5.0034Z" stroke="#3F4044" stroke-width="1.5"/>
<path d="M3.99916 3.03603C8.66324 3.37829 11.0975 6.08155 11.9169 7.8149C11.9742 7.9361 12 8.0691 12 8.20315V11.955C12 12.5245 11.5196 12.9822 10.9529 12.9252C3.66848 12.1919 3.05546 7.3932 3.00451 3.99935C2.99622 3.44713 3.44836 2.99561 3.99916 3.03603Z" stroke="#3F4044" stroke-width="1.5"/>
</svg>
