<svg width="20" height="20" viewBox="0 0 20 20" fill="none" xmlns="http://www.w3.org/2000/svg">
<g clip-path="url(#clip0_151_853)">
<path d="M16.6667 5.00001C17.5871 5.00001 18.3333 4.2538 18.3333 3.33334C18.3333 2.41286 17.5871 1.66667 16.6667 1.66667C15.7462 1.66667 15 2.41286 15 3.33334C15 4.2538 15.7462 5.00001 16.6667 5.00001Z" stroke="#33393F" stroke-width="1.5"/>
<path d="M16.6667 18.3333C17.5871 18.3333 18.3333 17.5871 18.3333 16.6667C18.3333 15.7462 17.5871 15 16.6667 15C15.7462 15 15 15.7462 15 16.6667C15 17.5871 15.7462 18.3333 16.6667 18.3333Z" stroke="#33393F" stroke-width="1.5"/>
<path d="M3.33341 5.00001C4.25387 5.00001 5.00008 4.2538 5.00008 3.33334C5.00008 2.41286 4.25387 1.66667 3.33341 1.66667C2.41294 1.66667 1.66675 2.41286 1.66675 3.33334C1.66675 4.2538 2.41294 5.00001 3.33341 5.00001Z" stroke="#33393F" stroke-width="1.5"/>
<path d="M3.33317 18.3333C4.25363 18.3333 4.99984 17.5871 4.99984 16.6667C4.99984 15.7462 4.25363 15 3.33317 15C2.4127 15 1.6665 15.7462 1.6665 16.6667C1.6665 17.5871 2.4127 18.3333 3.33317 18.3333Z" stroke="#33393F" stroke-width="1.5"/>
<path d="M8.33325 16.6667H11.6666" stroke="#33393F" stroke-width="1.5"/>
<path d="M8.33325 3.33333H11.6666" stroke="#33393F" stroke-width="1.5"/>
<path d="M3.33325 8.33333V11.6667" stroke="#33393F" stroke-width="1.5"/>
<path d="M16.6667 8.33333V11.6667" stroke="#33393F" stroke-width="1.5"/>
</g>
<defs>
<clipPath id="clip0_151_853">
<rect width="20" height="20" fill="white"/>
</clipPath>
</defs>
</svg>
