<svg width="25" height="25" viewBox="0 0 25 25" fill="none" xmlns="http://www.w3.org/2000/svg">
<path d="M9.21318 23.1077C7.2863 22.534 5.57113 21.4689 4.21302 20.0577C4.71967 19.4572 5.025 18.6814 5.025 17.8343C5.025 15.9289 3.48038 14.3843 1.575 14.3843C1.45974 14.3843 1.3458 14.3899 1.23344 14.401C1.08038 13.6526 1 12.8779 1 12.0843C1 10.8822 1.18444 9.72313 1.52658 8.63391C1.54269 8.63414 1.55883 8.63425 1.575 8.63425C3.48038 8.63425 5.025 7.08963 5.025 5.18425C5.025 4.63726 4.89769 4.12004 4.67114 3.66051C6.00106 2.42391 7.62429 1.49846 9.42496 1C9.99553 2.1184 11.1584 2.88427 12.5 2.88427C13.8416 2.88427 15.0045 2.1184 15.575 1C17.3757 1.49846 18.9989 2.42391 20.3289 3.66051C20.1023 4.12004 19.975 4.63726 19.975 5.18425C19.975 7.08963 21.5196 8.63425 23.425 8.63425C23.4412 8.63425 23.4573 8.63414 23.4734 8.63391C23.8155 9.72313 24 10.8822 24 12.0843C24 12.8779 23.9196 13.6526 23.7666 14.401C23.6542 14.3899 23.5403 14.3843 23.425 14.3843C21.5196 14.3843 19.975 15.9289 19.975 17.8343C19.975 18.6814 20.2803 19.4572 20.787 20.0577C19.4289 21.4689 17.7137 22.534 15.7868 23.1077C15.3421 21.7166 14.0387 20.7093 12.5 20.7093C10.9613 20.7093 9.65789 21.7166 9.21318 23.1077Z" stroke="#3F4044" stroke-width="1.5"/>
<path d="M12.5001 16.1095C14.723 16.1095 16.5251 14.3074 16.5251 12.0845C16.5251 9.86153 14.723 8.05947 12.5001 8.05947C10.2771 8.05947 8.4751 9.86153 8.4751 12.0845C8.4751 14.3074 10.2771 16.1095 12.5001 16.1095Z" stroke="#3F4044" stroke-width="1.5"/>
</svg>
