<svg width="22" height="21" viewBox="0 0 22 21" fill="none" xmlns="http://www.w3.org/2000/svg">
<path d="M11.0001 13.1217C12.1507 13.1217 13.0834 12.1919 13.0834 11.0449C13.0834 9.8979 12.1507 8.96808 11.0001 8.96808C9.8495 8.96808 8.91675 9.8979 8.91675 11.0449C8.91675 12.1919 9.8495 13.1217 11.0001 13.1217Z" stroke="#33393F"/>
<path d="M7.33332 6.875C4.88889 9.15319 4.88889 12.8468 7.33332 15.125" stroke="#33393F" stroke-linecap="square"/>
<path d="M14.6667 15.125C17.1112 12.8468 17.1112 9.15319 14.6667 6.875" stroke="#33393F" stroke-linecap="square"/>
<path d="M4.5181 4.58333C0.938301 8.15196 0.938301 13.9378 4.5181 17.5064" stroke="#33393F" stroke-linecap="square"/>
<path d="M17.4817 17.5064C21.0615 13.9378 21.0615 8.15196 17.4817 4.58333" stroke="#33393F" stroke-linecap="square"/>
</svg>
