<svg width="22" height="21" viewBox="0 0 22 21" fill="none" xmlns="http://www.w3.org/2000/svg">
<circle cx="10.8351" cy="10.8351" r="8.22985" stroke="#33393F" stroke-width="1.5" stroke-dasharray="3 3"/>
<path d="M10.9776 3.85075C11.7648 3.85075 12.403 3.21257 12.403 2.42537C12.403 1.63818 11.7648 1 10.9776 1C10.1904 1 9.55225 1.63818 9.55225 2.42537C9.55225 3.21257 10.1904 3.85075 10.9776 3.85075Z" fill="#F2F2F2" stroke="#33393F" stroke-width="1.5"/>
<path d="M10.9776 20.1C11.7648 20.1 12.403 19.4618 12.403 18.6746C12.403 17.8874 11.7648 17.2493 10.9776 17.2493C10.1904 17.2493 9.55225 17.8874 9.55225 18.6746C9.55225 19.4618 10.1904 20.1 10.9776 20.1Z" fill="#F2F2F2" stroke="#33393F" stroke-width="1.5"/>
<path d="M2.42537 12.403C3.21257 12.403 3.85075 11.7648 3.85075 10.9776C3.85075 10.1904 3.21257 9.55225 2.42537 9.55225C1.63816 9.55225 1 10.1904 1 10.9776C1 11.7648 1.63816 12.403 2.42537 12.403Z" fill="#F2F2F2" stroke="#33393F" stroke-width="1.5"/>
<path d="M19.5299 12.403C20.3171 12.403 20.9552 11.7648 20.9552 10.9776C20.9552 10.1904 20.3171 9.55225 19.5299 9.55225C18.7427 9.55225 18.1045 10.1904 18.1045 10.9776C18.1045 11.7648 18.7427 12.403 19.5299 12.403Z" fill="#F2F2F2" stroke="#33393F" stroke-width="1.5"/>
</svg>
