<svg width="20" height="20" viewBox="0 0 20 20" fill="none" xmlns="http://www.w3.org/2000/svg">
<g clip-path="url(#clip0_4_160)">
<path d="M16.6667 4.99999C17.5871 4.99999 18.3333 4.25378 18.3333 3.33332C18.3333 2.41285 17.5871 1.66666 16.6667 1.66666C15.7462 1.66666 15 2.41285 15 3.33332C15 4.25378 15.7462 4.99999 16.6667 4.99999Z" stroke="#33393F" stroke-width="1.5"/>
<path d="M16.6667 18.3333C17.5871 18.3333 18.3333 17.5871 18.3333 16.6667C18.3333 15.7462 17.5871 15 16.6667 15C15.7462 15 15 15.7462 15 16.6667C15 17.5871 15.7462 18.3333 16.6667 18.3333Z" stroke="#33393F" stroke-width="1.5"/>
<path d="M3.33329 4.99999C4.25375 4.99999 4.99996 4.25378 4.99996 3.33332C4.99996 2.41285 4.25375 1.66666 3.33329 1.66666C2.41282 1.66666 1.66663 2.41285 1.66663 3.33332C1.66663 4.25378 2.41282 4.99999 3.33329 4.99999Z" stroke="#33393F" stroke-width="1.5"/>
<path d="M3.33329 18.3333C4.25375 18.3333 4.99996 17.5871 4.99996 16.6667C4.99996 15.7462 4.25375 15 3.33329 15C2.41282 15 1.66663 15.7462 1.66663 16.6667C1.66663 17.5871 2.41282 18.3333 3.33329 18.3333Z" stroke="#33393F" stroke-width="1.5"/>
<path d="M8.33337 16.6667H11.6667" stroke="#33393F" stroke-width="1.5"/>
<path d="M8.33337 3.33334H11.6667" stroke="#33393F" stroke-width="1.5"/>
<path d="M3.33337 8.33334V11.6667" stroke="#33393F" stroke-width="1.5"/>
<path d="M16.6666 8.33334V11.6667" stroke="#33393F" stroke-width="1.5"/>
</g>
<defs>
<clipPath id="clip0_4_160">
<rect width="20" height="20" fill="white"/>
</clipPath>
</defs>
</svg>
