<svg width="59" height="59" viewBox="0 0 59 59" fill="none" xmlns="http://www.w3.org/2000/svg">
<path d="M59 29.5C59 45.7924 45.7924 59 29.5 59C13.2076 59 0 45.7924 0 29.5C0 13.2076 13.2076 0 29.5 0C45.7924 0 59 13.2076 59 29.5Z" fill="#D5D6D9"/>
<path d="M29.104 59C20.8284 58.9898 13.3512 55.572 8 50.0744C9.43567 45.5974 13.6479 42.3333 18.5855 42.3333H40.8077C45.426 42.3333 49.4096 45.1888 51.0804 49.2214C45.688 55.2163 37.8738 58.9893 29.1782 59H29.104Z" fill="#B4B5BD"/>
<path d="M17.2439 21.5472C17.2439 28.4028 22.8439 34 29.6967 34C36.5495 34 42.1495 28.3083 42.1495 21.4528C42.1495 14.5972 36.5495 9 29.6967 9C22.8439 9 17.2439 14.6917 17.2439 21.5472Z" fill="#B4B5BD"/>
</svg>
