<svg width="42" height="40" viewBox="0 0 42 40" fill="none" xmlns="http://www.w3.org/2000/svg">
<rect opacity="0.8" width="42" height="40" rx="4" fill="#202023"/>
<path d="M8.62219 20.6222L12.5402 20.6089" stroke="#D5D6D9" stroke-width="1.5"/>
<path d="M21 28L21.0179 32.2803" stroke="#D5D6D9" stroke-width="1.5"/>
<path d="M21 8L21.0137 12.0462" stroke="#D5D6D9" stroke-width="1.5"/>
<path d="M29.4598 20.6243L33.3891 20.6109" stroke="#D5D6D9" stroke-width="1.5"/>
<path d="M21 28C25.4183 28 29 24.4183 29 20C29 15.5817 25.4183 12 21 12C16.5817 12 13 15.5817 13 20C13 24.4183 16.5817 28 21 28Z" stroke="#D5D6D9" stroke-width="1.5"/>
<path d="M21 24C23.2091 24 25 22.2091 25 20C25 17.7909 23.2091 16 21 16C18.7909 16 17 17.7909 17 20C17 22.2091 18.7909 24 21 24Z" fill="#D5D6D9"/>
</svg>
